<svg width="30" height="30" viewBox="0 0 30 30" fill="none" xmlns="http://www.w3.org/2000/svg">
<path d="M25.0001 9.72973L17.5001 3.33243C16.8126 2.73411 15.9225 2.40333 15.0001 2.40333C14.0777 2.40333 13.1876 2.73411 12.5001 3.33243L5.00012 9.72973C4.60308 10.0752 4.28624 10.4991 4.07071 10.973C3.85517 11.4469 3.74588 11.9601 3.75012 12.4784V23.1081C3.75012 24.0758 4.14521 25.0038 4.84847 25.6881C5.55173 26.3724 6.50556 26.7568 7.50012 26.7568H22.5001C23.4947 26.7568 24.4485 26.3724 25.1518 25.6881C25.855 25.0038 26.2501 24.0758 26.2501 23.1081V12.4662C26.2526 11.95 26.1424 11.4392 25.927 10.9675C25.7115 10.4957 25.3956 10.0739 25.0001 9.72973ZM17.5001 24.3243H12.5001V18.2432C12.5001 17.9207 12.6318 17.6113 12.8662 17.3833C13.1007 17.1552 13.4186 17.027 13.7501 17.027H16.2501C16.5816 17.027 16.8996 17.1552 17.134 17.3833C17.3684 17.6113 17.5001 17.9207 17.5001 18.2432V24.3243ZM23.7501 23.1081C23.7501 23.4307 23.6184 23.74 23.384 23.9681C23.1496 24.1962 22.8316 24.3243 22.5001 24.3243H20.0001V18.2432C20.0001 17.2756 19.605 16.3475 18.9018 15.6633C18.1985 14.979 17.2447 14.5946 16.2501 14.5946H13.7501C12.7556 14.5946 11.8017 14.979 11.0985 15.6633C10.3952 16.3475 10.0001 17.2756 10.0001 18.2432V24.3243H7.50012C7.1686 24.3243 6.85066 24.1962 6.61624 23.9681C6.38181 23.74 6.25012 23.4307 6.25012 23.1081V12.4662C6.25034 12.2935 6.28836 12.1229 6.36164 11.9656C6.43492 11.8083 6.54178 11.668 6.67512 11.5541L14.1751 5.16892C14.4032 4.97394 14.6965 4.86641 15.0001 4.86641C15.3038 4.86641 15.597 4.97394 15.8251 5.16892L23.3251 11.5541C23.4585 11.668 23.5653 11.8083 23.6386 11.9656C23.7119 12.1229 23.7499 12.2935 23.7501 12.4662V23.1081Z" fill="black"/>
</svg>
